<svg width="50" height="50" viewBox="0 0 50 50" fill="none" xmlns="http://www.w3.org/2000/svg">
<path d="M25 42C15.6 42 8 34.4 8 25C8 15.6 15.6 8 25 8C34.4 8 42 15.6 42 25C42 34.4 34.4 42 25 42ZM25 10C16.7 10 10 16.7 10 25C10 33.3 16.7 40 25 40C33.3 40 40 33.3 40 25C40 16.7 33.3 10 25 10Z" fill="white"/>
<path d="M19.7999 19.6C20.0999 18.8 20.3999 18.2 20.9999 17.7C21.4999 17.2 22.0999 16.8 22.8999 16.5C23.6999 16.2 24.4999 16.1 25.3999 16.1C26.0999 16.1 26.7999 16.2 27.3999 16.4C27.9999 16.6 28.5999 16.9 29.0999 17.3C29.5999 17.7 29.9999 18.2 30.1999 18.8C30.4999 19.4 30.5999 20.1 30.5999 20.8C30.5999 21.8 30.3999 22.6 29.9999 23.3C29.5999 24 28.9999 24.6 28.3999 25.3L27.0999 26.6C26.7999 26.9 26.4999 27.2 26.3999 27.5C26.1999 27.8 26.0999 28.2 26.0999 28.6C25.9999 29 25.9999 29.3 25.9999 30.1H24.3999C24.3999 29.3 24.3999 29 24.4999 28.4C24.5999 27.9 24.7999 27.4 24.9999 26.9C25.1999 26.5 25.4999 26.1 25.8999 25.7C26.2999 25.3 26.7999 24.9 27.2999 24.3C27.7999 23.8 28.1999 23.3 28.4999 22.8C28.7999 22.3 28.9999 21.6 28.9999 21C28.9999 20.5 28.8999 20 28.6999 19.6C28.4999 19.2 28.1999 18.8 27.8999 18.5C27.5999 18.2 27.1999 18 26.6999 17.8C26.1999 17.6 25.7999 17.5 25.2999 17.5C24.5999 17.5 23.9999 17.6 23.4999 17.9C22.9999 18.1 22.4999 18.5 22.1999 18.9C21.8999 19.3 21.5999 19.8 21.3999 20.4C21.1999 21 20.9999 21.3 20.9999 22H19.3999C19.3999 21.1 19.4999 20.4 19.7999 19.6V19.6ZM25.9999 32V34H23.9999V32H25.9999Z" fill="white"/>
</svg>
